<svg xmlns="http://www.w3.org/2000/svg" viewBox="0 0 150 49.071">
  <defs>
    <style>
      .cls-1 {
        fill: #fff;
      }
    </style>
  </defs>
  <g id="app-store" transform="translate(0 0)">
    <path id="Path_2464" data-name="Path 2464" d="M149.971,42.43a6.643,6.643,0,0,1-6.64,6.64H6.64A6.643,6.643,0,0,1,0,42.43V6.64A6.625,6.625,0,0,1,6.64,0H143.36A6.643,6.643,0,0,1,150,6.64V42.43Z"/>
    <g id="Group_343" data-name="Group 343" transform="translate(9.717 8.204)">
      <path id="Path_2465" data-name="Path 2465" class="cls-1" d="M63.038,70.388a25.669,25.669,0,0,1-2.109,3.968c-1.387,2.109-3.33,4.717-5.716,4.717-2.137.028-2.692-1.387-5.577-1.387-2.886.028-3.5,1.387-5.633,1.387-2.414-.028-4.273-2.359-5.633-4.467-3.857-5.855-4.246-12.737-1.887-16.4A8.5,8.5,0,0,1,43.336,54.1c2.553,0,4.162,1.387,6.271,1.387,2.053,0,3.3-1.387,6.243-1.387a8.393,8.393,0,0,1,6.271,3.3A7.168,7.168,0,0,0,63.038,70.388Z" transform="translate(-35.017 -46.441)"/>
      <g id="Group_342" data-name="Group 342" transform="translate(13.466)">
        <path id="Path_2466" data-name="Path 2466" class="cls-1" d="M88.665,31.8a7.058,7.058,0,0,0,1.582-5.3,7.62,7.62,0,0,0-4.995,2.692,6.692,6.692,0,0,0-1.637,5.161A6.6,6.6,0,0,0,88.665,31.8Z" transform="translate(-83.544 -26.5)"/>
      </g>
    </g>
    <g id="Group_346" data-name="Group 346" transform="translate(49.162 8.289)">
      <g id="Group_344" data-name="Group 344" transform="translate(0 11.321)">
        <path id="Path_2467" data-name="Path 2467" class="cls-1" d="M163.922,68.6,158.4,84.833h2.525l1.637-4.995h5.328l1.693,4.995h2.608L166.641,68.6Zm1.3,2.664c.194.721.388,1.471.638,2.3l1.5,4.3h-4.218l1.471-4.329C164.838,72.818,165.032,72.069,165.226,71.264Z" transform="translate(-158.4 -68.323)"/>
        <path id="Path_2468" data-name="Path 2468" class="cls-1" d="M217.571,83.8a4.573,4.573,0,0,0-3.913,1.887l-.111-1.609H211.3v.194c.055,1,.083,2.109.083,3.691v12.515h2.47V94.65a4.269,4.269,0,0,0,3.358,1.443,5.03,5.03,0,0,0,3.718-1.582,6.68,6.68,0,0,0,1.637-4.717,6.574,6.574,0,0,0-1.415-4.3A4.483,4.483,0,0,0,217.571,83.8Zm-.61,2.026c2.192,0,3.163,2.026,3.163,4.051,0,2.581-1.249,4.19-3.274,4.19a2.969,2.969,0,0,1-2.886-2.275,3.256,3.256,0,0,1-.083-.8v-1.97a2.658,2.658,0,0,1,.083-.61c0-.055.028-.139.028-.194A3.1,3.1,0,0,1,216.961,85.826Z" transform="translate(-196.621 -79.305)"/>
        <path id="Path_2469" data-name="Path 2469" class="cls-1" d="M263.243,83.8a4.573,4.573,0,0,0-3.913,1.887l-.111-1.609H257v.194c.055,1,.083,2.109.083,3.691v12.515h2.47V94.65a4.269,4.269,0,0,0,3.358,1.443,5.03,5.03,0,0,0,3.718-1.582,6.68,6.68,0,0,0,1.637-4.717,6.574,6.574,0,0,0-1.415-4.3A4.577,4.577,0,0,0,263.243,83.8Zm-.61,2.026c2.192,0,3.163,2.026,3.163,4.051,0,2.581-1.249,4.19-3.274,4.19a2.992,2.992,0,0,1-2.886-2.275,3.257,3.257,0,0,1-.083-.8v-1.97a2.659,2.659,0,0,1,.083-.61c0-.055.028-.139.028-.194A3.1,3.1,0,0,1,262.633,85.826Z" transform="translate(-229.64 -79.305)"/>
        <path id="Path_2470" data-name="Path 2470" class="cls-1" d="M321.283,74.759c-2.3-.888-3.025-1.582-3.025-2.886,0-1.082.86-2.192,2.8-2.192a5.692,5.692,0,0,1,2.886.721l.222.139.694-2.053-.139-.083a7.027,7.027,0,0,0-3.58-.8c-3.136,0-5.328,1.859-5.328,4.5,0,2.137,1.36,3.635,4.3,4.689,2.081.777,2.858,1.582,2.858,2.941,0,1.554-1.193,2.5-3.136,2.5a6.78,6.78,0,0,1-3.552-1l-.222-.139-.666,2.109.111.083a8.458,8.458,0,0,0,4.162,1.054c4.218,0,5.716-2.581,5.716-4.773C325.417,77.312,324.224,75.925,321.283,74.759Z" transform="translate(-271.835 -67.6)"/>
        <path id="Path_2471" data-name="Path 2471" class="cls-1" d="M356.49,74.6l-2.414.749V77.4H352.3v1.97h1.776v6.021a4.524,4.524,0,0,0,.86,3.108,3.132,3.132,0,0,0,2.386.943,5.615,5.615,0,0,0,1.887-.305l.139-.055-.111-1.97-.222.083a4.086,4.086,0,0,1-1.138.139c-.943,0-1.36-.61-1.36-2.026V79.373h2.969V77.4h-2.969V74.6Z" transform="translate(-298.496 -72.658)"/>
        <path id="Path_2472" data-name="Path 2472" class="cls-1" d="M384.927,83.8c-3.441,0-5.827,2.553-5.827,6.243,0,3.552,2.331,6.049,5.661,6.049h.028c2.8,0,5.827-1.97,5.827-6.271a6.248,6.248,0,0,0-1.554-4.356A5.693,5.693,0,0,0,384.927,83.8Zm-.083,1.915c2.22,0,3.219,2.164,3.219,4.162,0,2.47-1.36,4.246-3.274,4.246h-.028c-1.859,0-3.219-1.748-3.219-4.19C381.57,87.851,382.569,85.715,384.844,85.715Z" transform="translate(-317.859 -79.305)"/>
        <path id="Path_2473" data-name="Path 2473" class="cls-1" d="M431.7,83.911l-.139-.028a2.311,2.311,0,0,0-.61-.083,3.5,3.5,0,0,0-3.08,1.97l-.083-1.72H425.6l.028.194c.056.971.083,2.053.083,3.524l-.028,8.019h2.47V89.516c0-.333.028-.666.056-.943a2.723,2.723,0,0,1,2.581-2.47c.25,0,.444.028.666.028l.25.028Z" transform="translate(-351.456 -79.305)"/>
        <path id="Path_2474" data-name="Path 2474" class="cls-1" d="M453.05,83.7c-3.274,0-5.55,2.608-5.55,6.354,0,3.607,2.275,5.938,5.8,5.938a9.454,9.454,0,0,0,3.885-.749l.139-.055-.472-1.831-.194.083a7.477,7.477,0,0,1-3.08.555,3.438,3.438,0,0,1-3.691-3.552l7.936.028.028-.166a4.9,4.9,0,0,0,.083-1.027C457.933,86.7,456.657,83.7,453.05,83.7Zm-.167,1.859a2.363,2.363,0,0,1,1.8.694,3.449,3.449,0,0,1,.832,2.275h-5.605C450.164,87.113,451.052,85.559,452.883,85.559Z" transform="translate(-367.279 -79.232)"/>
      </g>
      <g id="Group_345" data-name="Group 345">
        <path id="Path_2475" data-name="Path 2475" class="cls-1" d="M158.4,28.166A19.219,19.219,0,0,1,160.759,28a5.394,5.394,0,0,1,3.469.943,3.37,3.37,0,0,1,1.221,2.775,3.966,3.966,0,0,1-1.221,3,5.67,5.67,0,0,1-3.774,1.11c-.8,0-1.443-.028-2.026-.083V28.166Zm1.138,6.826a6.558,6.558,0,0,0,1.11.056c2.359,0,3.635-1.193,3.635-3.247,0-1.831-1.138-2.969-3.469-2.969a7.084,7.084,0,0,0-1.3.111v6.049Z" transform="translate(-158.4 -27.667)"/>
        <path id="Path_2476" data-name="Path 2476" class="cls-1" d="M190.341,41.372a2.768,2.768,0,0,1-2.941-2.83,2.854,2.854,0,0,1,3.052-2.941,2.74,2.74,0,0,1,2.941,2.83,2.858,2.858,0,0,1-3.052,2.941Zm.028-.749a1.963,1.963,0,0,0,1.859-2.164,1.876,1.876,0,1,0-3.718.028,1.97,1.97,0,0,0,1.859,2.137Z" transform="translate(-179.353 -33.158)"/>
        <path id="Path_2477" data-name="Path 2477" class="cls-1" d="M212.293,36.028l.832,2.8c.166.61.333,1.193.444,1.776h.028a17.914,17.914,0,0,1,.555-1.748l1-2.8h.943l.943,2.747c.222.638.416,1.249.555,1.8h.028c.111-.555.277-1.138.472-1.8l.86-2.775h1.11l-1.97,5.522h-1.027l-.943-2.636c-.222-.638-.388-1.165-.555-1.831h-.028a11.773,11.773,0,0,1-.555,1.831l-1,2.608h-1.027L211.1,36h1.193Z" transform="translate(-196.477 -33.447)"/>
        <path id="Path_2478" data-name="Path 2478" class="cls-1" d="M247.256,37.137a12.556,12.556,0,0,0-.055-1.5h1l.055.888h.028a2.373,2.373,0,0,1,2.026-1.027,2.089,2.089,0,0,1,2.164,2.359v3.3h-1.11V38c0-.888-.361-1.637-1.415-1.637a1.594,1.594,0,0,0-1.5,1.027,1.3,1.3,0,0,0-.083.472v3.33h-1.11Z" transform="translate(-222.559 -33.086)"/>
        <path id="Path_2479" data-name="Path 2479" class="cls-1" d="M272.7,26.8h1.11v8.1H272.7Z" transform="translate(-240.984 -26.8)"/>
        <path id="Path_2480" data-name="Path 2480" class="cls-1" d="M284.741,41.372a2.768,2.768,0,0,1-2.941-2.83,2.854,2.854,0,0,1,3.052-2.941,2.74,2.74,0,0,1,2.941,2.83,2.858,2.858,0,0,1-3.052,2.941Zm.028-.749a1.963,1.963,0,0,0,1.859-2.164,1.876,1.876,0,1,0-3.718.028,1.97,1.97,0,0,0,1.859,2.137Z" transform="translate(-247.558 -33.158)"/>
        <path id="Path_2481" data-name="Path 2481" class="cls-1" d="M311.428,40.073a9.789,9.789,0,0,0,.083,1.332h-1l-.111-.694h-.028a2.339,2.339,0,0,1-1.887.832,1.673,1.673,0,0,1-1.887-1.582c0-1.332,1.3-2.053,3.691-2.053V37.8c0-.444-.139-1.276-1.387-1.276a3.091,3.091,0,0,0-1.609.416l-.25-.666a4.367,4.367,0,0,1,2.026-.472,2.034,2.034,0,0,1,2.331,2.248v2.026Zm-1.082-1.5c-1.221-.028-2.608.166-2.608,1.249a.931.931,0,0,0,1.027.971,1.517,1.517,0,0,0,1.5-.916,1.393,1.393,0,0,0,.055-.333v-.971Z" transform="translate(-265.477 -33.303)"/>
        <path id="Path_2482" data-name="Path 2482" class="cls-1" d="M334.544,26.8v6.66a10.932,10.932,0,0,0,.056,1.415h-1l-.055-.971h-.028a2.3,2.3,0,0,1-2.081,1.082,2.643,2.643,0,0,1-2.636-2.8,2.761,2.761,0,0,1,2.747-2.969,2.125,2.125,0,0,1,1.859.832h.028V26.8Zm-1.11,4.828a1.222,1.222,0,0,0-.056-.444,1.6,1.6,0,0,0-1.609-1.138,1.875,1.875,0,0,0-1.831,2.109,1.82,1.82,0,0,0,1.8,2.053,1.642,1.642,0,0,0,1.637-1.193,2.155,2.155,0,0,0,.056-.444Z" transform="translate(-281.517 -26.8)"/>
        <path id="Path_2483" data-name="Path 2483" class="cls-1" d="M367.241,41.372a2.768,2.768,0,0,1-2.941-2.83,2.854,2.854,0,0,1,3.052-2.941,2.74,2.74,0,0,1,2.941,2.83,2.858,2.858,0,0,1-3.052,2.941Zm.028-.749a1.963,1.963,0,0,0,1.859-2.164,1.876,1.876,0,1,0-3.718.028,1.953,1.953,0,0,0,1.859,2.137Z" transform="translate(-307.166 -33.158)"/>
        <path id="Path_2484" data-name="Path 2484" class="cls-1" d="M390.755,37.137a12.552,12.552,0,0,0-.056-1.5h1l.055.888h.028a2.373,2.373,0,0,1,2.026-1.027,2.089,2.089,0,0,1,2.164,2.359v3.3h-1.11V38c0-.888-.361-1.637-1.415-1.637a1.594,1.594,0,0,0-1.5,1.027,1.3,1.3,0,0,0-.083.472v3.33h-1.11Z" transform="translate(-326.24 -33.086)"/>
        <path id="Path_2485" data-name="Path 2485" class="cls-1" d="M425.453,31.3v1.332h1.609v.777h-1.609v2.969c0,.694.222,1.082.832,1.082a3.369,3.369,0,0,0,.638-.056l.055.777a3.882,3.882,0,0,1-1,.139,1.671,1.671,0,0,1-1.193-.416,2,2,0,0,1-.444-1.443v-3.08H423.4V32.6h.943V31.577Z" transform="translate(-349.867 -30.051)"/>
        <path id="Path_2486" data-name="Path 2486" class="cls-1" d="M441.1,26.8h1.11v3.441h.028a1.664,1.664,0,0,1,.8-.694,2.231,2.231,0,0,1,1.138-.277,2.084,2.084,0,0,1,2.137,2.359V34.9h-1.11V31.711c0-.888-.361-1.637-1.415-1.637a1.6,1.6,0,0,0-1.5,1,1.2,1.2,0,0,0-.083.472v3.33H441.1V26.8Z" transform="translate(-362.655 -26.8)"/>
        <path id="Path_2487" data-name="Path 2487" class="cls-1" d="M465.81,38.58a1.862,1.862,0,0,0,2.081,1.915,4.7,4.7,0,0,0,1.693-.277l.194.694a5.314,5.314,0,0,1-2.053.361A2.724,2.724,0,0,1,464.7,38.5a2.827,2.827,0,0,1,2.886-3,2.422,2.422,0,0,1,2.525,2.608,2.253,2.253,0,0,1-.028.472Zm3.247-.721a1.494,1.494,0,0,0-1.526-1.637,1.772,1.772,0,0,0-1.72,1.637Z" transform="translate(-379.706 -33.086)"/>
      </g>
    </g>
  </g>
</svg>
