<svg xmlns="http://www.w3.org/2000/svg" xmlns:xlink="http://www.w3.org/1999/xlink" viewBox="0 0 150 49.062">
  <defs>
    <style>
      .cls-1 {
        clip-path: url(#clip-path);
      }

      .cls-2 {
        fill: url(#linear-gradient);
      }

      .cls-3 {
        fill: url(#linear-gradient-2);
      }

      .cls-4 {
        fill: url(#linear-gradient-3);
      }

      .cls-5 {
        fill: url(#linear-gradient-4);
      }

      .cls-6 {
        fill: #fff;
      }
    </style>
    <clipPath id="clip-path">
      <path id="Path_2433" data-name="Path 2433" d="M58.744,45.078l-6.463-3.737s-11.8-6.828-12.5-7.221-1.377-.169-1.377.674V64.213c0,.618.506.9,1.1.562s12.785-7.39,12.785-7.39l6.491-3.737,6.238-3.6c.731-.421.674-1.012.056-1.321C64.42,48.394,58.744,45.078,58.744,45.078Z" transform="translate(-38.4 -33.932)"/>
    </clipPath>
    <linearGradient id="linear-gradient" x1="0.5" x2="0.5" y2="1" gradientUnits="objectBoundingBox">
      <stop offset="0" stop-color="#4f79ac"/>
      <stop offset="0.286" stop-color="#6d92b5"/>
      <stop offset="0.767" stop-color="#98bcbe"/>
      <stop offset="1" stop-color="#a8ccbe"/>
    </linearGradient>
    <linearGradient id="linear-gradient-2" y1="0.5" x2="1.001" y2="0.5" gradientUnits="objectBoundingBox">
      <stop offset="0" stop-color="#85b9a9"/>
      <stop offset="1" stop-color="#e7e99e"/>
    </linearGradient>
    <linearGradient id="linear-gradient-3" x1="0.5" y1="-0.001" x2="0.5" y2="1" gradientUnits="objectBoundingBox">
      <stop offset="0" stop-color="#c54939"/>
      <stop offset="0.167" stop-color="#b94a4e"/>
      <stop offset="0.575" stop-color="#994c76"/>
      <stop offset="0.862" stop-color="#854e8d"/>
      <stop offset="1" stop-color="#7e4f94"/>
    </linearGradient>
    <linearGradient id="linear-gradient-4" x1="0.5" y1="0.002" x2="0.5" y2="0.999" gradientUnits="objectBoundingBox">
      <stop offset="0" stop-color="#d68d7b"/>
      <stop offset="0.119" stop-color="#d9957c"/>
      <stop offset="0.713" stop-color="#e8be7c"/>
      <stop offset="1" stop-color="#eecd7a"/>
    </linearGradient>
  </defs>
  <g id="google-paly" transform="translate(0 0)">
    <g id="Group_341" data-name="Group 341" transform="translate(0 0)">
      <path id="Path_2431" data-name="Path 2431" d="M150,42.434a6.621,6.621,0,0,1-6.628,6.628H6.628A6.621,6.621,0,0,1,0,42.434V6.628A6.621,6.621,0,0,1,6.628,0H143.372A6.621,6.621,0,0,1,150,6.628Z"/>
      <g id="PLAY_2_" transform="translate(10.79 11.587)">
        <g id="Group_333" data-name="Group 333" class="cls-1">
          <path id="Path_2432" data-name="Path 2432" class="cls-2" d="M38.4,32.2V64.036l16.044-15.9Z" transform="translate(-38.4 -32.687)"/>
        </g>
        <g id="Group_334" data-name="Group 334" class="cls-1">
          <path id="Path_2434" data-name="Path 2434" class="cls-3" d="M58.744,43.545l-6.463-3.737L38.4,31.8v.112L54.444,47.844Z" transform="translate(-38.4 -32.399)"/>
        </g>
        <g id="Group_335" data-name="Group 335" class="cls-1">
          <path id="Path_2436" data-name="Path 2436" class="cls-4" d="M38.4,104.8v.112l13.881-8.008,6.463-3.737-4.3-4.271Z" transform="translate(-38.4 -73.455)"/>
        </g>
        <g id="Group_336" data-name="Group 336" class="cls-1">
          <path id="Path_2438" data-name="Path 2438" class="cls-5" d="M99.8,73.6l-4.3,4.3,4.3,4.271,7.418-4.271Z" transform="translate(-79.456 -62.454)"/>
        </g>
      </g>
      <g id="Group_337" data-name="Group 337" transform="translate(113.809 19.106)">
        <path id="Path_2440" data-name="Path 2440" class="cls-6" d="M387.027,86.482a4.067,4.067,0,0,1-1.658-.337A3.01,3.01,0,0,1,384.1,85.1h-.112a14.82,14.82,0,0,1,.112,1.545v3.821h-1.4v-13.4h1.152l.2,1.264h.056a3.311,3.311,0,0,1,1.264-1.1,3.883,3.883,0,0,1,1.658-.337,3.4,3.4,0,0,1,2.838,1.264,6.7,6.7,0,0,1,0,7.081A3.579,3.579,0,0,1,387.027,86.482Zm-.225-8.4a2.439,2.439,0,0,0-2.051.787,3.981,3.981,0,0,0-.646,2.5v.309a4.711,4.711,0,0,0,.646,2.782,2.443,2.443,0,0,0,2.079.843,2.2,2.2,0,0,0,1.883-.983,4.634,4.634,0,0,0,.674-2.669,4.513,4.513,0,0,0-.674-2.669A2.248,2.248,0,0,0,386.8,78.08Z" transform="translate(-382.7 -73.163)"/>
        <path id="Path_2441" data-name="Path 2441" class="cls-6" d="M419.7,76.75h-1.4V63.6h1.4Z" transform="translate(-408.297 -63.6)"/>
        <path id="Path_2442" data-name="Path 2442" class="cls-6" d="M435.678,86.313l-.281-1.321h-.056a3.686,3.686,0,0,1-1.377,1.18,4.348,4.348,0,0,1-1.714.309,3.088,3.088,0,0,1-2.164-.7,2.566,2.566,0,0,1-.787-2.023c0-1.883,1.489-2.838,4.5-2.95l1.574-.056v-.562a2.32,2.32,0,0,0-.478-1.6,1.948,1.948,0,0,0-1.489-.506,5.983,5.983,0,0,0-2.613.7l-.421-1.068a6.334,6.334,0,0,1,1.489-.59,6.508,6.508,0,0,1,1.63-.225,3.578,3.578,0,0,1,2.445.731,3.028,3.028,0,0,1,.787,2.36v6.322ZM432.5,85.33a2.857,2.857,0,0,0,2.051-.731,2.649,2.649,0,0,0,.759-2.023v-.843l-1.4.056a4.952,4.952,0,0,0-2.417.534,1.54,1.54,0,0,0-.731,1.433,1.406,1.406,0,0,0,.45,1.152A1.836,1.836,0,0,0,432.5,85.33Z" transform="translate(-416.206 -73.163)"/>
        <path id="Path_2443" data-name="Path 2443" class="cls-6" d="M458.6,77.5h1.489l2.023,5.283a16.187,16.187,0,0,1,.815,2.613h.056c.084-.281.225-.787.45-1.461.225-.7,1.012-2.838,2.3-6.407h1.517l-3.962,10.509a5.288,5.288,0,0,1-1.377,2.22,2.889,2.889,0,0,1-1.939.646,6.455,6.455,0,0,1-1.264-.14V89.639a5.609,5.609,0,0,0,1.04.112,2.114,2.114,0,0,0,2.051-1.63l.506-1.321Z" transform="translate(-437.273 -73.594)"/>
      </g>
      <g id="Group_339" data-name="Group 339" transform="translate(46.882 18.133)">
        <path id="Path_2444" data-name="Path 2444" class="cls-6" d="M287.193,78.7a3.154,3.154,0,0,1-.253,5.367,1.374,1.374,0,0,0-.534.955,1.1,1.1,0,0,0,.506.843l.7.534c.843.731,1.63,1.377,1.63,2.726,0,1.826-1.77,3.653-5.086,3.653C281.349,92.78,280,91.431,280,90a2.753,2.753,0,0,1,1.489-2.36,8.462,8.462,0,0,1,3.709-.9,1.939,1.939,0,0,1-.59-1.321,1.512,1.512,0,0,1,.2-.759,4.764,4.764,0,0,1-.618.028,3.044,3.044,0,0,1-3.2-3.035,3.389,3.389,0,0,1,1.236-2.585A5.314,5.314,0,0,1,285.676,78h3.99l-1.236.7h-1.236Zm-1.377,8.6a2.271,2.271,0,0,0-.45-.028,7.3,7.3,0,0,0-2.023.309,2.159,2.159,0,0,0-1.658,2c0,1.377,1.349,2.36,3.4,2.36,1.855,0,2.838-.9,2.838-2.079C287.924,88.874,287.306,88.34,285.816,87.3Zm.562-3.681a1.93,1.93,0,0,0,.478-1.4c0-1.4-.843-3.569-2.445-3.569a1.778,1.778,0,0,0-1.349.646,2.16,2.16,0,0,0-.421,1.433c0,1.293.759,3.456,2.417,3.456A1.966,1.966,0,0,0,286.378,83.62Z" transform="translate(-244.933 -72.942)"/>
        <path id="Path_2445" data-name="Path 2445" class="cls-6" d="M250.121,86.345a4.565,4.565,0,0,1-4.721-4.552,4.794,4.794,0,0,1,5-4.693,4.508,4.508,0,0,1,4.608,4.552A4.689,4.689,0,0,1,250.121,86.345Zm2.417-1.574a3.429,3.429,0,0,0,.59-2.136c0-1.714-.815-4.945-3.2-4.945a2.772,2.772,0,0,0-1.742.646,2.907,2.907,0,0,0-.9,2.36c0,1.911.955,5.058,3.288,5.058A2.385,2.385,0,0,0,252.537,84.771Z" transform="translate(-220.055 -72.295)"/>
        <path id="Path_2446" data-name="Path 2446" class="cls-6" d="M212.821,86.345a4.565,4.565,0,0,1-4.721-4.552,4.794,4.794,0,0,1,5-4.693,4.508,4.508,0,0,1,4.608,4.552A4.689,4.689,0,0,1,212.821,86.345Zm2.417-1.574a3.429,3.429,0,0,0,.59-2.136c0-1.714-.815-4.945-3.2-4.945a2.772,2.772,0,0,0-1.742.646,2.907,2.907,0,0,0-.9,2.36c0,1.911.955,5.058,3.288,5.058A2.385,2.385,0,0,0,215.237,84.771Z" transform="translate(-193.236 -72.295)"/>
        <path id="Path_2447" data-name="Path 2447" class="cls-6" d="M168.6,74.819l-2.782.646a21.4,21.4,0,0,1-3.2.337c-5.367,0-7.418-3.934-7.418-7.025,0-3.765,2.894-7.278,7.84-7.278a11.379,11.379,0,0,1,2.978.421,7.883,7.883,0,0,1,2.557,1.208l-1.6,1.545-.674.169.478-.787a5.539,5.539,0,0,0-4.159-1.826,5.38,5.38,0,0,0-5.395,5.732,6.863,6.863,0,0,0,6.884,7.081,6.035,6.035,0,0,0,2.473-.478V71.419l-2.922.169,1.545-.843h4.131l-.506.478a.426.426,0,0,0-.2.309c-.028.169-.028.731-.028.927Z" transform="translate(-155.2 -61.079)"/>
        <path id="Path_2448" data-name="Path 2448" class="cls-6" d="M316.931,73.178c-.646-.056-.787-.169-.787-.927v-11.1c.084-.674.281-.787.871-1.152h-2.754l-1.461.7h1.489v12c0,.393-.084.45-.534,1.04h3.428l.731-.421C317.577,73.263,317.268,73.235,316.931,73.178Z" transform="translate(-268.516 -60)"/>
        <path id="Path_2449" data-name="Path 2449" class="cls-6" d="M337.553,85.6a7.113,7.113,0,0,1-.646.337,4.665,4.665,0,0,1-1.883.365,4,4,0,0,1-2.557-.759,4.945,4.945,0,0,1-1.967-4.074A4.4,4.4,0,0,1,334.911,77a3.794,3.794,0,0,1,2,.534,3.279,3.279,0,0,1,1.349,1.911L333.731,81.3l-1.489.112c.478,2.445,2.135,3.878,3.99,3.878a4.968,4.968,0,0,0,2.36-.674Zm-1.8-5.76c.365-.14.562-.253.562-.534a1.926,1.926,0,0,0-1.911-1.658,2.359,2.359,0,0,0-2.22,2.669c0,.337.028.674.056,1.012Z" transform="translate(-281.243 -72.223)"/>
        <g id="Group_338" data-name="Group 338" transform="translate(57.603 4.805)">
          <path id="Path_2450" data-name="Path 2450" class="cls-6" d="M360.79,77.24V78.5h-.169V77.24H360.2V77.1h.983v.14Z" transform="translate(-360.2 -77.1)"/>
          <path id="Path_2451" data-name="Path 2451" class="cls-6" d="M365.74,78.5V77.212h0l-.393,1.293h-.112l-.393-1.293h0V78.5h-.14V77.1h.253l.365,1.124h0l.365-1.124h.253v1.4Z" transform="translate(-363.436 -77.1)"/>
        </g>
      </g>
      <g id="Group_340" data-name="Group 340" transform="translate(46.573 9.923)">
        <path id="Path_2452" data-name="Path 2452" class="cls-6" d="M159.221,37.934h-.955a5.333,5.333,0,0,0-.281-1.124h-1.4a5.333,5.333,0,0,0-.281,1.124h-.9A17.21,17.21,0,0,1,156.1,36a14.165,14.165,0,0,0,.7-2h1.152a20.088,20.088,0,0,0,.646,1.967C159,37.175,159.221,37.821,159.221,37.934Zm-1.4-1.714a17.373,17.373,0,0,1-.506-1.686h-.056a14.175,14.175,0,0,1-.534,1.686Z" transform="translate(-155.4 -33.916)"/>
        <path id="Path_2453" data-name="Path 2453" class="cls-6" d="M174.531,37.862h-.759a8.21,8.21,0,0,0-.843-1.321,7.008,7.008,0,0,1-.983-1.714h-.056a9.722,9.722,0,0,1,.084,1.208c0,.506,0,1.1.056,1.826H171.3c.028-.618.056-1.321.056-2.051s-.028-1.349-.056-1.883h.9a5.284,5.284,0,0,0,.759,1.264,6.189,6.189,0,0,1,.9,1.6h.056a9.72,9.72,0,0,1-.084-1.208c0-.534-.028-1.1-.056-1.686h.759c-.028.506-.056,1.124-.056,1.883C174.5,36.569,174.5,37.244,174.531,37.862Z" transform="translate(-166.832 -33.844)"/>
        <path id="Path_2454" data-name="Path 2454" class="cls-6" d="M189.844,35.826a2.231,2.231,0,0,1-.562,1.489,1.931,1.931,0,0,1-1.545.646c-.309,0-.7,0-1.236-.028.028-.618.028-1.293.028-2.051,0-.731,0-1.349-.028-1.883h1.264a1.974,1.974,0,0,1,1.574.534A1.827,1.827,0,0,1,189.844,35.826Zm-.843.14a1.492,1.492,0,0,0-.337-.983,1.313,1.313,0,0,0-1.04-.393,2.016,2.016,0,0,0-.365.028c.028.393.028.815.028,1.264,0,.478,0,.955.028,1.433a1.855,1.855,0,0,0,.393.028,1.167,1.167,0,0,0,.955-.393A1.358,1.358,0,0,0,189,35.967Z" transform="translate(-177.761 -33.916)"/>
        <path id="Path_2455" data-name="Path 2455" class="cls-6" d="M204.575,37.934h-.9a6.511,6.511,0,0,0-.534-1.321.69.69,0,0,0-.59-.253h-.337c0,.506,0,1.04.028,1.574H201.4c.028-.618.028-1.293.028-2.051,0-.731,0-1.349-.028-1.883h1.433c.927,0,1.377.309,1.377.955a1.039,1.039,0,0,1-.787,1.04v.056a.956.956,0,0,1,.534.478A6.478,6.478,0,0,1,204.575,37.934Zm-1.124-2.782c0-.393-.253-.59-.787-.59a1.4,1.4,0,0,0-.506.056c.028.309.028.731.028,1.208h.281C203.142,35.826,203.451,35.6,203.451,35.152Z" transform="translate(-188.475 -33.916)"/>
        <path id="Path_2456" data-name="Path 2456" class="cls-6" d="M218.321,35.7a2.271,2.271,0,0,1-.562,1.545,1.87,1.87,0,0,1-1.4.618,1.739,1.739,0,0,1-1.321-.562,1.929,1.929,0,0,1-.534-1.433,2.271,2.271,0,0,1,.562-1.545,1.87,1.87,0,0,1,1.4-.618,1.739,1.739,0,0,1,1.321.562A1.929,1.929,0,0,1,218.321,35.7Zm-.815.084a1.607,1.607,0,0,0-.309-1.012.955.955,0,0,0-1.545,0,1.608,1.608,0,0,0-.309,1.012,1.466,1.466,0,0,0,.337,1.012.955.955,0,0,0,1.545,0A1.941,1.941,0,0,0,217.507,35.779Z" transform="translate(-197.894 -33.7)"/>
        <path id="Path_2457" data-name="Path 2457" class="cls-6" d="M232.043,37.934H231.2c.028-.618.028-1.321.028-2.051s0-1.349-.028-1.883h.843c-.028.506-.028,1.124-.028,1.883S232.015,37.316,232.043,37.934Z" transform="translate(-209.901 -33.916)"/>
        <path id="Path_2458" data-name="Path 2458" class="cls-6" d="M241.244,35.826a2.231,2.231,0,0,1-.562,1.489,1.931,1.931,0,0,1-1.545.646c-.309,0-.7,0-1.236-.028.028-.618.028-1.293.028-2.051,0-.731,0-1.349-.028-1.883h1.264a1.974,1.974,0,0,1,1.574.534A1.827,1.827,0,0,1,241.244,35.826Zm-.843.14a1.492,1.492,0,0,0-.337-.983,1.313,1.313,0,0,0-1.04-.393,2.015,2.015,0,0,0-.365.028c.028.393.028.815.028,1.264,0,.478,0,.955.028,1.433a1.855,1.855,0,0,0,.393.028,1.167,1.167,0,0,0,.955-.393A1.358,1.358,0,0,0,240.4,35.967Z" transform="translate(-214.718 -33.916)"/>
        <path id="Path_2459" data-name="Path 2459" class="cls-6" d="M260.621,37.934h-.955a5.332,5.332,0,0,0-.281-1.124h-1.4a5.33,5.33,0,0,0-.281,1.124h-.9A17.2,17.2,0,0,1,257.5,36a14.164,14.164,0,0,0,.7-2h1.152A20.07,20.07,0,0,0,260,35.967,15.787,15.787,0,0,1,260.621,37.934Zm-1.377-1.714a17.364,17.364,0,0,1-.506-1.686h-.056a14.178,14.178,0,0,1-.534,1.686Z" transform="translate(-228.308 -33.916)"/>
        <path id="Path_2460" data-name="Path 2460" class="cls-6" d="M275.666,35.04a1.161,1.161,0,0,1-.534,1.068,2.427,2.427,0,0,1-1.321.337h-.2c0,.365,0,.871.028,1.489H272.8c.028-.59.028-1.264.028-2.051,0-.731,0-1.349-.028-1.883h1.517a1.666,1.666,0,0,1,.955.253A.878.878,0,0,1,275.666,35.04Zm-.787.169c0-.421-.281-.646-.871-.646a2.8,2.8,0,0,0-.45.056c.028.393.028.815.028,1.293h.169C274.514,35.911,274.879,35.658,274.879,35.208Z" transform="translate(-239.812 -33.916)"/>
        <path id="Path_2461" data-name="Path 2461" class="cls-6" d="M288.466,35.04a1.161,1.161,0,0,1-.534,1.068,2.427,2.427,0,0,1-1.321.337h-.2c0,.365,0,.871.028,1.489H285.6c.028-.59.028-1.264.028-2.051,0-.731,0-1.349-.028-1.883h1.517a1.666,1.666,0,0,1,.955.253A.823.823,0,0,1,288.466,35.04Zm-.759.169c0-.421-.281-.646-.871-.646a2.8,2.8,0,0,0-.45.056c.028.393.028.815.028,1.293h.169C287.342,35.911,287.707,35.658,287.707,35.208Z" transform="translate(-249.015 -33.916)"/>
        <path id="Path_2462" data-name="Path 2462" class="cls-6" d="M307.121,35.7a2.271,2.271,0,0,1-.562,1.545,1.776,1.776,0,0,1-1.4.618,1.739,1.739,0,0,1-1.321-.562,1.929,1.929,0,0,1-.534-1.433,2.271,2.271,0,0,1,.562-1.545,1.87,1.87,0,0,1,1.4-.618,1.739,1.739,0,0,1,1.321.562A1.929,1.929,0,0,1,307.121,35.7Zm-.843.084a1.607,1.607,0,0,0-.309-1.012.955.955,0,0,0-1.545,0,1.608,1.608,0,0,0-.309,1.012,1.466,1.466,0,0,0,.337,1.012.955.955,0,0,0,1.545,0A1.712,1.712,0,0,0,306.278,35.779Z" transform="translate(-261.742 -33.7)"/>
        <path id="Path_2463" data-name="Path 2463" class="cls-6" d="M323.231,37.862h-.759a8.209,8.209,0,0,0-.843-1.321,7.007,7.007,0,0,1-.983-1.714h-.056a9.725,9.725,0,0,1,.084,1.208c0,.506,0,1.1.056,1.826H320c.028-.618.056-1.321.056-2.051s-.028-1.349-.056-1.883h.9a5.285,5.285,0,0,0,.759,1.264,6.189,6.189,0,0,1,.9,1.6h.056a9.725,9.725,0,0,1-.084-1.208c0-.534,0-1.1-.056-1.686h.759c-.028.506-.056,1.124-.056,1.883C323.175,36.569,323.2,37.244,323.231,37.862Z" transform="translate(-273.749 -33.844)"/>
      </g>
    </g>
  </g>
</svg>
