<svg xmlns="http://www.w3.org/2000/svg" viewBox="0 0 180.354 145">
  <defs>
    <style>
      .cls-1 {
        fill: #fff;
      }

      .cls-2 {
        fill: #504f51;
      }

      .cls-3 {
        fill: #00e4ff;
      }

      .cls-4 {
        fill: #0b0f2b;
      }

      .cls-5 {
        opacity: 0.97;
      }
    </style>
  </defs>
  <g id="marca-creativeland-2" transform="translate(-0.2 0.038)">
    <g id="Group_396" data-name="Group 396" transform="translate(0.2 103.274)">
      <g id="Group_394" data-name="Group 394">
        <path id="Path_2472" data-name="Path 2472" class="cls-1" d="M18.985,311.724a1.783,1.783,0,0,1,.426.071,1.008,1.008,0,0,1,.391.284l2.379,2.486a10.1,10.1,0,0,1-3.906,3.089,13.892,13.892,0,0,1-5.54,1.03,12.968,12.968,0,0,1-5.255-.994,11.3,11.3,0,0,1-3.942-2.77,12.052,12.052,0,0,1-2.486-4.19A15.686,15.686,0,0,1,.2,305.474a13.506,13.506,0,0,1,.994-5.291,13.064,13.064,0,0,1,2.77-4.19,12.051,12.051,0,0,1,4.261-2.734,15.122,15.122,0,0,1,5.469-.959,13.5,13.5,0,0,1,2.734.249,12.728,12.728,0,0,1,2.415.71,12.5,12.5,0,0,1,2.06,1.065,10.8,10.8,0,0,1,1.669,1.385l-2.024,2.7a2.839,2.839,0,0,1-.462.462,1.385,1.385,0,0,1-1.349.071c-.178-.107-.391-.213-.6-.355s-.462-.284-.71-.426a5.151,5.151,0,0,0-.888-.426,8.222,8.222,0,0,0-1.207-.355,7.563,7.563,0,0,0-1.633-.142,7.328,7.328,0,0,0-2.983.568A6.664,6.664,0,0,0,8.4,299.438a7.752,7.752,0,0,0-1.491,2.592,10.4,10.4,0,0,0-.533,3.409,10.755,10.755,0,0,0,.533,3.515,7.952,7.952,0,0,0,1.456,2.592,5.936,5.936,0,0,0,2.166,1.6,6.607,6.607,0,0,0,2.663.533c.533,0,1.03-.035,1.491-.071a4.549,4.549,0,0,0,1.243-.284,6.147,6.147,0,0,0,1.1-.5,6.774,6.774,0,0,0,1.065-.781,2.017,2.017,0,0,1,.462-.284C18.63,311.759,18.807,311.724,18.985,311.724Z" transform="translate(-0.2 -291.803)"/>
        <path id="Path_2473" data-name="Path 2473" class="cls-1" d="M64.8,331.749V313.355h3.267a3.263,3.263,0,0,1,.675.071,1.1,1.1,0,0,1,.462.213,1.576,1.576,0,0,1,.284.391c.071.177.107.355.178.6l.284,1.7a8.927,8.927,0,0,1,2.273-2.45A4.573,4.573,0,0,1,74.956,313a3.2,3.2,0,0,1,2.024.6l-.71,4.048a.78.78,0,0,1-.284.533.9.9,0,0,1-.568.142,5.986,5.986,0,0,1-.71-.071,7.772,7.772,0,0,0-1.03-.071,3.775,3.775,0,0,0-3.409,2.308v11.257Z" transform="translate(-41.861 -305.152)"/>
        <path id="Path_2474" data-name="Path 2474" class="cls-1" d="M106.755,313.3a9.152,9.152,0,0,1,3.338.568,7.5,7.5,0,0,1,2.592,1.634,7.81,7.81,0,0,1,1.7,2.663,10.057,10.057,0,0,1,.6,3.551c0,.426-.036.746-.036.994a2.044,2.044,0,0,1-.178.6.868.868,0,0,1-.391.32,1.478,1.478,0,0,1-.6.071H103.2a5.206,5.206,0,0,0,1.385,3.338,4.225,4.225,0,0,0,2.912,1.03,5.525,5.525,0,0,0,1.633-.213,8.241,8.241,0,0,0,1.243-.5c.355-.178.675-.355.994-.5a2.115,2.115,0,0,1,.959-.213,1.125,1.125,0,0,1,.994.462l1.6,1.953a8.654,8.654,0,0,1-1.847,1.6,10.565,10.565,0,0,1-2.024.959,10.735,10.735,0,0,1-2.06.462,12.78,12.78,0,0,1-1.989.142,10.231,10.231,0,0,1-3.622-.639,7.774,7.774,0,0,1-2.947-1.882,8.146,8.146,0,0,1-1.989-3.089,11.463,11.463,0,0,1-.746-4.3,9.464,9.464,0,0,1,.639-3.48,8.606,8.606,0,0,1,1.811-2.876,8.452,8.452,0,0,1,2.841-1.953A9.614,9.614,0,0,1,106.755,313.3Zm.107,3.8a3.194,3.194,0,0,0-2.45.888,4.525,4.525,0,0,0-1.172,2.592h6.853a5.281,5.281,0,0,0-.178-1.278,2.893,2.893,0,0,0-.533-1.1,2.71,2.71,0,0,0-.994-.781A2.944,2.944,0,0,0,106.862,317.1Z" transform="translate(-63.078 -305.346)"/>
        <path id="Path_2475" data-name="Path 2475" class="cls-1" d="M161.529,331.749a2.456,2.456,0,0,1-1.172-.213,1.673,1.673,0,0,1-.675-.888l-.391-.994a14.96,14.96,0,0,1-1.314,1.03,9.594,9.594,0,0,1-1.314.746,6.34,6.34,0,0,1-1.456.462,8.482,8.482,0,0,1-1.7.142,7.474,7.474,0,0,1-2.273-.32,4.6,4.6,0,0,1-1.74-.959,4.289,4.289,0,0,1-1.1-1.6,5.947,5.947,0,0,1-.391-2.2,4.719,4.719,0,0,1,2.2-3.906,11.09,11.09,0,0,1,3.3-1.42,19.666,19.666,0,0,1,5.22-.568v-.781a3.246,3.246,0,0,0-.675-2.344,2.516,2.516,0,0,0-1.882-.71,5.121,5.121,0,0,0-1.6.213,6.413,6.413,0,0,0-1.1.462c-.32.178-.639.32-.959.462a2.647,2.647,0,0,1-1.1.213,1.616,1.616,0,0,1-.959-.284,2.887,2.887,0,0,1-.639-.675l-.994-1.7a11.22,11.22,0,0,1,3.693-2.2,13.411,13.411,0,0,1,4.368-.71,8.292,8.292,0,0,1,3.018.533,6.658,6.658,0,0,1,2.273,1.491,6.159,6.159,0,0,1,1.42,2.308,8.49,8.49,0,0,1,.5,2.912v11.47h-2.557Zm-6.321-3.338a4.287,4.287,0,0,0,1.847-.355,5.266,5.266,0,0,0,1.6-1.207v-2.521a14.052,14.052,0,0,0-2.7.213,6.146,6.146,0,0,0-1.669.533,1.8,1.8,0,0,0-.852.746,1.963,1.963,0,0,0-.249.888,1.69,1.69,0,0,0,.5,1.349A2.935,2.935,0,0,0,155.209,328.411Z" transform="translate(-95.516 -305.152)"/>
        <path id="Path_2476" data-name="Path 2476" class="cls-1" d="M202.919,323a6.542,6.542,0,0,1-2.308-.391,4.224,4.224,0,0,1-1.669-1.065,4.153,4.153,0,0,1-1.03-1.7,6.228,6.228,0,0,1-.355-2.2v-9.517h-1.562a.991.991,0,0,1-.71-.284,1,1,0,0,1-.284-.817v-2.131l2.912-.568,1.065-4.474a1.086,1.086,0,0,1,1.207-.852h2.876v5.362h4.474v3.764h-4.474v9.126a1.726,1.726,0,0,0,.32,1.065,1.033,1.033,0,0,0,.888.426,1.855,1.855,0,0,0,.5-.071,3.709,3.709,0,0,0,.355-.142,1.063,1.063,0,0,1,.284-.142.71.71,0,0,1,.32-.071.638.638,0,0,1,.391.106,1.6,1.6,0,0,1,.32.355l1.669,2.592a7.913,7.913,0,0,1-2.379,1.207A8.414,8.414,0,0,1,202.919,323Z" transform="translate(-125.827 -296.124)"/>
        <path id="Path_2477" data-name="Path 2477" class="cls-1" d="M239.969,294.1a2.991,2.991,0,0,1-.249,1.243,3.236,3.236,0,0,1-1.776,1.669,3.21,3.21,0,0,1-1.314.249,2.882,2.882,0,0,1-1.243-.249,3.452,3.452,0,0,1-1.03-.675,3.914,3.914,0,0,1-.71-.994,2.778,2.778,0,0,1-.249-1.243,2.882,2.882,0,0,1,.249-1.243,2.973,2.973,0,0,1,.71-1.03,2.885,2.885,0,0,1,1.03-.675,2.991,2.991,0,0,1,1.243-.249,3.326,3.326,0,0,1,1.314.249,3.632,3.632,0,0,1,1.065.675,2.974,2.974,0,0,1,.71,1.03A3.366,3.366,0,0,1,239.969,294.1Zm-.639,5.042v18.394h-5.5V299.138Z" transform="translate(-150.591 -290.9)"/>
        <path id="Path_2478" data-name="Path 2478" class="cls-1" d="M264.144,332.394h-5.007L252,314h4.581a1.817,1.817,0,0,1,.994.284,1.374,1.374,0,0,1,.533.675l2.557,8.238c.213.675.391,1.314.568,1.953a18.765,18.765,0,0,1,.462,1.918c.142-.639.284-1.278.462-1.918s.391-1.278.6-1.953l2.663-8.238a1.421,1.421,0,0,1,.533-.675,1.583,1.583,0,0,1,.923-.284h4.368Z" transform="translate(-162.586 -305.797)"/>
        <path id="Path_2479" data-name="Path 2479" class="cls-1" d="M311.39,313.3a9.152,9.152,0,0,1,3.338.568,7.5,7.5,0,0,1,2.592,1.634,7.81,7.81,0,0,1,1.7,2.663,10.058,10.058,0,0,1,.6,3.551,3.913,3.913,0,0,1-.071.994,2.042,2.042,0,0,1-.178.6.714.714,0,0,1-.391.32,1.478,1.478,0,0,1-.6.071H307.8a5.205,5.205,0,0,0,1.385,3.338,4.225,4.225,0,0,0,2.912,1.03,5.524,5.524,0,0,0,1.633-.213,8.243,8.243,0,0,0,1.243-.5c.355-.178.675-.355.994-.5a2.115,2.115,0,0,1,.959-.213,1.125,1.125,0,0,1,.994.462l1.6,1.953a8.651,8.651,0,0,1-1.847,1.6,10.564,10.564,0,0,1-2.024.959,10.733,10.733,0,0,1-2.06.462,12.779,12.779,0,0,1-1.989.142,10.231,10.231,0,0,1-3.622-.639,7.773,7.773,0,0,1-2.947-1.882,8.147,8.147,0,0,1-1.989-3.089,12.217,12.217,0,0,1-.746-4.3,9.464,9.464,0,0,1,.639-3.48,8.606,8.606,0,0,1,1.811-2.876,8.454,8.454,0,0,1,2.841-1.953A10.058,10.058,0,0,1,311.39,313.3Zm.107,3.8a3.194,3.194,0,0,0-2.45.888,4.524,4.524,0,0,0-1.172,2.592h6.853a5.284,5.284,0,0,0-.177-1.278,2.894,2.894,0,0,0-.533-1.1,2.71,2.71,0,0,0-.994-.781A2.943,2.943,0,0,0,311.5,317.1Z" transform="translate(-195.025 -305.346)"/>
        <path id="Path_2480" data-name="Path 2480" class="cls-1" d="M360.269,293.2v25.78H358.6V293.2Z" transform="translate(-231.333 -292.383)"/>
        <path id="Path_2481" data-name="Path 2481" class="cls-1" d="M385.48,333.361a.592.592,0,0,1-.639-.5l-.249-2.237c-.5.462-.959.888-1.456,1.278a8.782,8.782,0,0,1-1.492.959,8.467,8.467,0,0,1-1.669.6,8.757,8.757,0,0,1-1.988.213,7.094,7.094,0,0,1-1.74-.249,3.825,3.825,0,0,1-1.491-.817,4.391,4.391,0,0,1-1.065-1.42,5.194,5.194,0,0,1-.391-2.06,3.616,3.616,0,0,1,.639-2.06,5.249,5.249,0,0,1,1.989-1.669,13.32,13.32,0,0,1,3.48-1.136,29.061,29.061,0,0,1,5.149-.5v-1.847a5.866,5.866,0,0,0-1.065-3.764,3.737,3.737,0,0,0-3.125-1.314,5.652,5.652,0,0,0-2.166.355,8.706,8.706,0,0,0-1.527.781,6.477,6.477,0,0,0-.994.781.977.977,0,0,1-.639.355.551.551,0,0,1-.533-.32l-.284-.5a9.884,9.884,0,0,1,2.912-2.1,8.294,8.294,0,0,1,3.444-.71,5.975,5.975,0,0,1,2.486.462,4.663,4.663,0,0,1,1.776,1.278,6.111,6.111,0,0,1,1.065,2.024,8.954,8.954,0,0,1,.355,2.663V333.4h-.781Zm-7.1-.923a7.266,7.266,0,0,0,3.48-.817,6.04,6.04,0,0,0,1.385-.959c.426-.391.852-.746,1.243-1.172V324.91a28.757,28.757,0,0,0-4.332.391,12.594,12.594,0,0,0-2.983.852,4.531,4.531,0,0,0-1.74,1.278,2.866,2.866,0,0,0-.568,1.669,3.9,3.9,0,0,0,.284,1.527,2.966,2.966,0,0,0,.781,1.065,2.578,2.578,0,0,0,1.1.6A8.711,8.711,0,0,0,378.378,332.438Z" transform="translate(-240.813 -306.765)"/>
        <path id="Path_2482" data-name="Path 2482" class="cls-1" d="M419.5,333.232V315.584h.923a.463.463,0,0,1,.533.426l.142,2.663a9.634,9.634,0,0,1,2.805-2.45,7.189,7.189,0,0,1,3.586-.923,6.44,6.44,0,0,1,2.557.462,5,5,0,0,1,1.847,1.314,5.62,5.62,0,0,1,1.1,2.1,9.529,9.529,0,0,1,.355,2.77V333.2H431.68V321.94a6.161,6.161,0,0,0-1.136-3.906,4.242,4.242,0,0,0-3.48-1.42,6.068,6.068,0,0,0-3.231.888,9.612,9.612,0,0,0-2.663,2.45v13.21H419.5Z" transform="translate(-270.607 -306.636)"/>
        <path id="Path_2483" data-name="Path 2483" class="cls-1" d="M478.613,318.916a.456.456,0,0,1-.5-.462l-.177-2.77a9.169,9.169,0,0,1-2.734,2.521,6.59,6.59,0,0,1-3.516.923,6.181,6.181,0,0,1-5.078-2.237c-1.207-1.491-1.811-3.764-1.811-6.747a13.321,13.321,0,0,1,.5-3.622,7.807,7.807,0,0,1,1.491-2.912,7.607,7.607,0,0,1,2.415-1.953,7.061,7.061,0,0,1,3.3-.71,6.4,6.4,0,0,1,3.089.675,6.256,6.256,0,0,1,2.273,1.953V293.1h1.669v25.78h-.923Zm-6.463-1.136a5.661,5.661,0,0,0,3.16-.888,9.449,9.449,0,0,0,2.521-2.521v-9.3a6.39,6.39,0,0,0-2.273-2.131,6.842,6.842,0,0,0-5.54-.036,5.7,5.7,0,0,0-1.953,1.6,6.72,6.72,0,0,0-1.172,2.486,11.267,11.267,0,0,0-.391,3.2c0,2.628.5,4.545,1.456,5.788A5.109,5.109,0,0,0,472.151,317.779Z" transform="translate(-299.821 -292.319)"/>
      </g>
      <g id="Group_395" data-name="Group 395" transform="translate(0.036 36.042)">
        <path id="Path_2484" data-name="Path 2484" class="cls-2" d="M5.413,398.169H4.845c-.071,0-.107,0-.142-.036a.491.491,0,0,1-.107-.142l-.5-1.314H1.649l-.5,1.314q0,.053-.107.106a.269.269,0,0,1-.142.036H.3L2.466,392.7h.746Zm-3.586-2.024H3.851l-.817-2.2c-.071-.142-.107-.32-.178-.5a1.1,1.1,0,0,0-.071.284c0,.071-.071.142-.107.213Z" transform="translate(-0.3 -392.593)"/>
        <path id="Path_2485" data-name="Path 2485" class="cls-2" d="M34.461,392.8v.6h-1.74V398.2h-.746V393.4H30.2v-.6Z" transform="translate(-19.583 -392.658)"/>
        <path id="Path_2486" data-name="Path 2486" class="cls-2" d="M63.77,396.458c.036.071.036.142.071.213.036-.071.036-.142.071-.213a.776.776,0,0,1,.107-.178l1.847-3.338q.053-.107.107-.107c.036,0,.071-.035.142-.035h.533v5.433h-.639V393.9L64.16,397.31c-.071.106-.142.178-.249.178h-.107a.267.267,0,0,1-.249-.178L61.639,393.9v4.332H61V392.8h.533c.071,0,.107,0,.142.035q.053,0,.107.107l1.882,3.338C63.734,396.316,63.734,396.387,63.77,396.458Z" transform="translate(-39.446 -392.658)"/>
        <path id="Path_2487" data-name="Path 2487" class="cls-2" d="M101.826,395.305a4,4,0,0,1-.178,1.136,3.106,3.106,0,0,1-.533.888,2.722,2.722,0,0,1-1.953.781,2.894,2.894,0,0,1-1.1-.213,2.756,2.756,0,0,1-.852-.568,2.056,2.056,0,0,1-.533-.888,2.94,2.94,0,0,1-.178-1.136,4,4,0,0,1,.178-1.136,3.1,3.1,0,0,1,.533-.888,2.757,2.757,0,0,1,.852-.568,2.649,2.649,0,0,1,1.1-.213,2.721,2.721,0,0,1,1.953.781,2.056,2.056,0,0,1,.533.888A4,4,0,0,1,101.826,395.305Zm-.746,0a2.331,2.331,0,0,0-.142-.888,2.1,2.1,0,0,0-.391-.675,1.857,1.857,0,0,0-.6-.426,1.912,1.912,0,0,0-.781-.142,1.808,1.808,0,0,0-.781.142,2.332,2.332,0,0,0-.6.426,1.78,1.78,0,0,0-.391.675,2.845,2.845,0,0,0,0,1.775,2.105,2.105,0,0,0,.391.675,1.857,1.857,0,0,0,.6.426,1.911,1.911,0,0,0,.781.142,1.807,1.807,0,0,0,.781-.142,1.855,1.855,0,0,0,.6-.426,1.781,1.781,0,0,0,.391-.675A2.219,2.219,0,0,0,101.081,395.305Z" transform="translate(-62.34 -392.464)"/>
        <path id="Path_2488" data-name="Path 2488" class="cls-2" d="M132.867,393.523c-.036.036-.036.071-.071.071a.131.131,0,0,1-.107.035.269.269,0,0,1-.142-.071c-.071-.036-.142-.107-.213-.142a1.392,1.392,0,0,0-.32-.142,1.574,1.574,0,0,0-.462-.071,1.323,1.323,0,0,0-.426.071.686.686,0,0,0-.32.178.773.773,0,0,0-.178.284,1.036,1.036,0,0,0-.071.32.716.716,0,0,0,.107.391.958.958,0,0,0,.284.249,1.185,1.185,0,0,0,.426.178,2.466,2.466,0,0,1,.462.178c.178.071.32.107.462.178a2.643,2.643,0,0,1,.426.249,1.007,1.007,0,0,1,.284.391,1.352,1.352,0,0,1,.107.568,2.067,2.067,0,0,1-.107.675,1.4,1.4,0,0,1-.355.533,1.547,1.547,0,0,1-.568.355,2.552,2.552,0,0,1-.781.142,2.71,2.71,0,0,1-.959-.177,2.211,2.211,0,0,1-.746-.533l.213-.355.071-.071a.13.13,0,0,1,.107-.036.6.6,0,0,1,.178.071,1.5,1.5,0,0,0,.249.178,1.109,1.109,0,0,0,.355.177,2.145,2.145,0,0,0,.533.071,1.8,1.8,0,0,0,.462-.071.736.736,0,0,0,.355-.213.517.517,0,0,0,.213-.32,1.277,1.277,0,0,0,.071-.391.638.638,0,0,0-.106-.391.956.956,0,0,0-.284-.249,1.184,1.184,0,0,0-.426-.178c-.142-.036-.32-.106-.462-.142a1.783,1.783,0,0,1-.462-.177,2.652,2.652,0,0,1-.426-.249,1.008,1.008,0,0,1-.284-.391,1.53,1.53,0,0,1-.107-.6,1.607,1.607,0,0,1,.107-.568,1.081,1.081,0,0,1,.32-.462,1.338,1.338,0,0,1,.533-.32,2.3,2.3,0,0,1,.71-.142,1.975,1.975,0,0,1,.817.142,2.016,2.016,0,0,1,.639.426Z" transform="translate(-83.686 -392.529)"/>
        <path id="Path_2489" data-name="Path 2489" class="cls-2" d="M162.238,392.8v.6h-2.592v1.882h2.237v.6h-2.237v2.344H158.9V392.8Z" transform="translate(-102.581 -392.658)"/>
        <path id="Path_2490" data-name="Path 2490" class="cls-2" d="M190.938,392.8v.6h-2.592v1.811h2.1v.568h-2.1v1.847h2.592v.6H187.6V392.8Z" transform="translate(-121.09 -392.658)"/>
        <path id="Path_2491" data-name="Path 2491" class="cls-2" d="M217.546,395.96v2.273H216.8V392.8h1.527a3.2,3.2,0,0,1,.888.107,1.914,1.914,0,0,1,.6.284,1.082,1.082,0,0,1,.355.462,1.72,1.72,0,0,1,.107.639,1.425,1.425,0,0,1-.107.533,1.91,1.91,0,0,1-.249.462,1.419,1.419,0,0,1-.426.355,1.568,1.568,0,0,1-.568.213.56.56,0,0,1,.249.249l1.6,2.166h-.639c-.142,0-.248-.035-.284-.142l-1.42-1.953c-.036-.071-.107-.107-.142-.142s-.142-.035-.213-.035h-.533Zm0-.533h.781a2.761,2.761,0,0,0,.568-.071,1.6,1.6,0,0,0,.426-.213,1.276,1.276,0,0,0,.249-.355.9.9,0,0,0,.071-.426.917.917,0,0,0-.32-.746,1.473,1.473,0,0,0-.959-.249h-.817Z" transform="translate(-139.921 -392.658)"/>
        <path id="Path_2492" data-name="Path 2492" class="cls-2" d="M250.378,398.169h-.568c-.071,0-.106,0-.142-.036a.49.49,0,0,1-.107-.142l-.5-1.314h-2.45l-.5,1.314q0,.053-.107.106a.269.269,0,0,1-.142.036H245.3l2.166-5.433h.746Zm-3.551-2.024h2.024l-.852-2.2c-.071-.142-.107-.32-.178-.5a1.1,1.1,0,0,0-.071.284.38.38,0,0,1-.071.213Z" transform="translate(-158.301 -392.593)"/>
        <path id="Path_2493" data-name="Path 2493" class="cls-2" d="M302.155,396.839a.13.13,0,0,1,.107.036l.284.32a2.336,2.336,0,0,1-.817.6,2.821,2.821,0,0,1-1.136.213,2.594,2.594,0,0,1-1.065-.213,2.251,2.251,0,0,1-.817-.568,3.1,3.1,0,0,1-.533-.888,3.4,3.4,0,0,1,.035-2.273,2.543,2.543,0,0,1,.568-.888,2.721,2.721,0,0,1,1.953-.781,2.97,2.97,0,0,1,1.03.177,2.645,2.645,0,0,1,.781.5l-.249.32-.071.071c-.035,0-.071.035-.106.035a.131.131,0,0,1-.107-.035.488.488,0,0,0-.142-.107.776.776,0,0,0-.178-.107,1.724,1.724,0,0,0-.249-.107l-.32-.107A1.591,1.591,0,0,0,300.7,393a1.806,1.806,0,0,0-.781.142,2.016,2.016,0,0,0-.639.426,1.611,1.611,0,0,0-.391.675,2.332,2.332,0,0,0-.142.888,2.219,2.219,0,0,0,.142.888,2.107,2.107,0,0,0,.391.675,1.859,1.859,0,0,0,.6.426,1.647,1.647,0,0,0,.746.142,1.463,1.463,0,0,0,.426-.035,1.349,1.349,0,0,0,.355-.107c.107-.036.213-.107.32-.142.106-.071.177-.142.284-.213C302.084,396.874,302.119,396.839,302.155,396.839Z" transform="translate(-192.287 -392.4)"/>
        <path id="Path_2494" data-name="Path 2494" class="cls-2" d="M331.046,395.96v2.273H330.3V392.8h1.527a3.2,3.2,0,0,1,.888.107,1.915,1.915,0,0,1,.6.284,1.083,1.083,0,0,1,.355.462,1.719,1.719,0,0,1,.107.639,1.424,1.424,0,0,1-.107.533,1.909,1.909,0,0,1-.249.462,1.418,1.418,0,0,1-.426.355,1.568,1.568,0,0,1-.568.213.56.56,0,0,1,.249.249l1.6,2.166h-.639c-.142,0-.249-.035-.284-.142l-1.42-1.953c-.035-.071-.106-.107-.142-.142s-.142-.035-.213-.035h-.533Zm0-.533h.781a2.762,2.762,0,0,0,.568-.071,1.6,1.6,0,0,0,.426-.213,1.277,1.277,0,0,0,.249-.355.9.9,0,0,0,.071-.426.917.917,0,0,0-.32-.746,1.474,1.474,0,0,0-.959-.249h-.817v2.06Z" transform="translate(-213.118 -392.658)"/>
        <path id="Path_2495" data-name="Path 2495" class="cls-2" d="M361.646,398.233H360.9V392.8h.746Z" transform="translate(-232.852 -392.658)"/>
        <path id="Path_2496" data-name="Path 2496" class="cls-2" d="M387.078,398.169h-.568c-.071,0-.107,0-.142-.036a.491.491,0,0,1-.107-.142l-.5-1.314h-2.45l-.5,1.314q0,.053-.107.106a.269.269,0,0,1-.142.036H382l2.166-5.433h.746Zm-3.551-2.024h2.024l-.852-2.2c-.071-.142-.107-.32-.178-.5a1.1,1.1,0,0,0-.071.284c-.035.071-.035.178-.071.213Z" transform="translate(-246.459 -392.593)"/>
        <path id="Path_2497" data-name="Path 2497" class="cls-2" d="M416.161,392.8v.6h-1.74V398.2h-.746V393.4H411.9v-.6Z" transform="translate(-265.742 -392.658)"/>
        <path id="Path_2498" data-name="Path 2498" class="cls-2" d="M443.746,398.233H443V392.8h.746Z" transform="translate(-285.798 -392.658)"/>
        <path id="Path_2499" data-name="Path 2499" class="cls-2" d="M464.1,392.8h.6c.071,0,.106,0,.142.036a.489.489,0,0,1,.106.142l1.527,3.835a2.419,2.419,0,0,1,.107.284,1.035,1.035,0,0,1,.071.32c.036-.106.036-.213.071-.32s.071-.178.107-.284l1.527-3.835q0-.053.107-.106a.27.27,0,0,1,.142-.071h.6l-2.2,5.433h-.675Z" transform="translate(-299.405 -392.658)"/>
        <path id="Path_2500" data-name="Path 2500" class="cls-2" d="M498.878,398.169h-.568c-.071,0-.107,0-.142-.036a.49.49,0,0,1-.107-.142l-.5-1.314h-2.45l-.5,1.314q0,.053-.106.106a.269.269,0,0,1-.142.036H493.8l2.166-5.433h.746Zm-3.551-2.024h2.024l-.852-2.2c-.071-.142-.107-.32-.177-.5a1.1,1.1,0,0,0-.071.284c-.035.071-.035.178-.071.213Z" transform="translate(-318.559 -392.593)"/>
      </g>
    </g>
    <g id="Group_410" data-name="Group 410" transform="translate(44.396 -0.038)">
      <g id="Group_397" data-name="Group 397" transform="translate(1.396 1.431)">
        <path id="Path_2501" data-name="Path 2501" class="cls-3" d="M214.671,65.036c-4.687-7.919-11.47-14.133-18-20.134-2.415-2.237-4.936-4.51-7.28-6.853-.213-.213-.568-.533-.994-.994-1.633-1.562-6.534-6.321-6.96-7.315.107-.5,1.1-1.7,3.054-3.586l.568-.568c4.19-4.474,8.771-9.019,14.843-10.866,3.338-1.03,7.883-.036,8.806,1.918a.268.268,0,0,1,.036.142.51.51,0,0,0-.107.071c-.426.107-1.1-.355-1.776-.781a6.358,6.358,0,0,0-1.811-.959l-1.989-.568,1.03,1.775c.249.391.462.781.71,1.136a11.411,11.411,0,0,1,1.989,4.758c.746,5.22-9.055,15.127-12.89,17.968l-.32.249v1.03l6.818,6.392.107.071c.639.32,1.349.284,4.723-3.054,1.7-1.669,3.444-3.551,3.942-4.19,5.468-6.853,14.63-18.288,5.824-29.686-3.054-3.942-6.747-6.214-10.937-6.711-8.345-.994-17.222,5.22-23.188,9.978a22.7,22.7,0,0,0-2.876,3.16c-1.314,1.562-3.231,3.871-4.3,4.368a12.948,12.948,0,0,1-2.628-2.876,19.184,19.184,0,0,0-1.669-2.06C163.786,11.1,156.755,3.817,144.468,3.994h-.107l-4.723,1.349-.107.071a20.584,20.584,0,0,0-9.8,10.333c-4.013,9.872,3.338,20.17,10.227,27.058.391.391.817.852,1.243,1.314a15.8,15.8,0,0,0,4.545,3.871c.5.249.817.391,4.3-2.77a45.558,45.558,0,0,0,3.729-3.693l.355-.5-.391-.5a40.4,40.4,0,0,0-3.942-4.048c-4.439-4.226-10.014-9.517-8.984-14.985a8.654,8.654,0,0,1,1.314-3.089,9.48,9.48,0,0,0,.781-1.456l1.633-1.6-1.456-.32a3.661,3.661,0,0,0-3.125.994,5.123,5.123,0,0,1-1.314.781c-.071-.071-.071-.107-.107-.249a.812.812,0,0,1,.355-.781c1.562-1.349,6.711-1.775,8.877-.994,7.031,2.45,12.393,8.167,14.985,11.363a12.167,12.167,0,0,0,1.172,1.172A4.756,4.756,0,0,1,165.7,29.7c-1.669,1.775-3.3,3.658-4.9,5.469A87.488,87.488,0,0,1,150.185,46c-4.829,3.871-10.937,9.162-15.624,15.766l-.071.107c-2.805,3.942-7.031,9.872-5.611,17.151A18.672,18.672,0,0,0,133,87.3a19.148,19.148,0,0,0,5.4,4.723,15.816,15.816,0,0,0,7.635,1.918c10.475,0,20.773-9.552,24.466-14.133l3.231-3.835a17,17,0,0,1,3.125,3.409c.284.355.568.746.852,1.065,4.9,6.072,18.678,17.08,29.935,12.251a19.385,19.385,0,0,0,6.214-4.687,16.519,16.519,0,0,0,4.581-9.41c.959-5.468-1.847-10.191-3.693-13.316Zm-54.259-2.841c2.024,1.847,4.51,4.084,5.5,5.859-3.089,4.51-12.215,12.5-17.613,14.63-3.3,1.314-8.238.923-9.481-1.456l-.036-.284a1.1,1.1,0,0,1,.391-.071,11.339,11.339,0,0,0,1.562,1.1c.32.178.6.391.923.6l.213.142h2.237l-.71-1.243c-2.415-4.119-3.764-6.889-1.065-11.434a33.572,33.572,0,0,1,5.753-6.676,49.35,49.35,0,0,0,4.19-4.4L162.436,48.7l11.328-11.186,9.872,9.73c1.811,1.811,3.729,3.622,5.575,5.362a127.506,127.506,0,0,1,11.434,11.754c.533.639,1.1,1.278,1.633,1.918,2.024,2.273,3.906,4.4,4.545,7.777.462,2.521-.426,3.977-1.385,5.54a11.555,11.555,0,0,0-.888,1.6l-1.562,2.344,2.273-.746a6.6,6.6,0,0,0,1.456-.781c.568-.355,1.669-1.03,2.06-.923a.035.035,0,0,1,.036.036l.036.213a7.718,7.718,0,0,1-5.5,2.308h-.107c-6.711,0-14.275-7.528-16.761-10.014-.32-.32-.71-.639-1.136-1.03-1.385-1.243-3.693-3.267-3.551-4.723l10.866-10.831-7.812-7.812L173.728,60.206l-.213.036L162.507,49.234l-7.493,7.493,3.338,3.515C158.885,60.81,159.631,61.485,160.412,62.195Z" transform="translate(-128.593 -3.991)"/>
      </g>
      <g id="Group_409" data-name="Group 409">
        <g id="Group_398" data-name="Group 398" transform="translate(64.641 11.001)">
          <path id="Path_2502" data-name="Path 2502" class="cls-4" d="M307.765,59.265a1.065,1.065,0,0,1-.746-1.811c.852-.888,1.7-1.74,2.521-2.557,6.037-6.072,10.795-10.866,10.653-15.269-.071-2.237-1.456-4.474-4.155-6.818a1.065,1.065,0,0,1-.107-1.491,1.034,1.034,0,0,1,1.491-.107c3.2,2.77,4.794,5.5,4.9,8.38.178,5.291-4.616,10.156-11.257,16.832l-2.521,2.521A1.1,1.1,0,0,1,307.765,59.265Z" transform="translate(-306.7 -30.944)"/>
        </g>
        <g id="Group_399" data-name="Group 399" transform="translate(26.149 34.032)">
          <path id="Path_2503" data-name="Path 2503" class="cls-4" d="M237.964,117.177a1.022,1.022,0,0,1-.746-.32l-18.572-18.5-18.536,18.5a1.055,1.055,0,0,1-1.491-1.491L217.9,96.12a1.03,1.03,0,0,1,1.491,0L238.71,115.4a1.03,1.03,0,0,1,0,1.491A1.221,1.221,0,0,1,237.964,117.177Z" transform="translate(-198.3 -95.8)"/>
        </g>
        <g id="Group_400" data-name="Group 400" transform="translate(53.469 10.953)">
          <path id="Path_2504" data-name="Path 2504" class="cls-4" d="M295.535,67.344a1.056,1.056,0,0,1-.71-.284c-11.292-10.369-19.246-19.353-19.317-19.424a1.027,1.027,0,0,1-.035-1.349c.462-.6,11.683-14.7,21.377-15.447a8.859,8.859,0,0,1,6.924,2.379,1.056,1.056,0,1,1-1.42,1.562,6.706,6.706,0,0,0-5.291-1.811c-7.635.6-16.938,11.115-19.317,13.955,2.06,2.273,9.126,9.907,18.572,18.607a1.062,1.062,0,0,1,.071,1.491A1.688,1.688,0,0,1,295.535,67.344Z" transform="translate(-275.237 -30.807)"/>
        </g>
        <g id="Group_401" data-name="Group 401" transform="translate(34.209 45.217)">
          <path id="Path_2505" data-name="Path 2505" class="cls-4" d="M233.286,140.616a1.022,1.022,0,0,1-.746-.32L221.32,129.111a1.055,1.055,0,0,1,1.491-1.491l10.44,10.44,10.3-10.3a1.055,1.055,0,0,1,1.491,1.491L234,140.3A.894.894,0,0,1,233.286,140.616Z" transform="translate(-221 -127.3)"/>
        </g>
        <g id="Group_402" data-name="Group 402" transform="translate(12.755 11.037)">
          <path id="Path_2506" data-name="Path 2506" class="cls-4" d="M175.111,59.365a.967.967,0,0,1-.746-.32c-.852-.888-1.7-1.7-2.521-2.521-6.64-6.711-11.47-11.541-11.257-16.832.107-2.841,1.7-5.575,4.9-8.38a1.057,1.057,0,0,1,1.385,1.6c-2.734,2.379-4.084,4.616-4.155,6.818-.142,4.368,4.616,9.2,10.653,15.269.817.817,1.669,1.669,2.521,2.557a1.061,1.061,0,0,1,0,1.491A1.165,1.165,0,0,1,175.111,59.365Z" transform="translate(-160.581 -31.044)"/>
        </g>
        <g id="Group_403" data-name="Group 403" transform="translate(12.65 53.243)">
          <path id="Path_2507" data-name="Path 2507" class="cls-4" d="M165.9,178.237a1.085,1.085,0,0,1-.71-.249c-3.2-2.77-4.794-5.5-4.9-8.38-.178-5.291,4.616-10.156,11.257-16.832.817-.817,1.669-1.669,2.521-2.557a1.055,1.055,0,0,1,1.491,1.491c-.852.888-1.7,1.74-2.521,2.557-6.037,6.072-10.795,10.866-10.653,15.269.071,2.237,1.456,4.474,4.155,6.818a1.065,1.065,0,0,1,.107,1.491A.769.769,0,0,1,165.9,178.237Z" transform="translate(-160.287 -149.9)"/>
        </g>
        <g id="Group_404" data-name="Group 404" transform="translate(10.453 10.775)">
          <path id="Path_2508" data-name="Path 2508" class="cls-4" d="M162.763,67.021a1.007,1.007,0,0,1-.781-.355,1.062,1.062,0,0,1,.071-1.491,246.658,246.658,0,0,0,18.43-18.749C178.139,43.62,168.8,33.074,161.165,32.47a6.583,6.583,0,0,0-5.291,1.811,1.056,1.056,0,0,1-1.42-1.562,8.771,8.771,0,0,1,6.924-2.379c9.73.746,20.915,14.843,21.377,15.447a1.027,1.027,0,0,1-.035,1.349,249.926,249.926,0,0,1-19.211,19.6A1.306,1.306,0,0,1,162.763,67.021Z" transform="translate(-154.098 -30.307)"/>
        </g>
        <g id="Group_405" data-name="Group 405" transform="translate(53.57 53.243)">
          <path id="Path_2509" data-name="Path 2509" class="cls-4" d="M297.957,178.308a6.285,6.285,0,0,1-.817-.036c-9.375-.746-20.134-13.884-21.306-15.34a1.1,1.1,0,0,1-.036-1.491l.142-.142c.249-.249,1.776-1.74,11.044-11.079a1.055,1.055,0,0,1,1.491,1.491c-4.474,4.51-7.706,7.741-9.552,9.588-.391.391-.675.675-.923.888,2.45,2.912,11.683,13.316,19.282,13.92a6.583,6.583,0,0,0,5.291-1.811,1.056,1.056,0,0,1,1.42,1.562A8.2,8.2,0,0,1,297.957,178.308Z" transform="translate(-275.523 -149.9)"/>
        </g>
        <g id="Group_406" data-name="Group 406" transform="translate(64.761 53.22)">
          <path id="Path_2510" data-name="Path 2510" class="cls-4" d="M317.073,178.125a1.079,1.079,0,0,1-.817-.355,1.032,1.032,0,0,1,.107-1.491c2.734-2.379,4.084-4.616,4.155-6.818.142-4.368-4.616-9.2-10.653-15.269-.817-.817-1.669-1.669-2.521-2.557a1.055,1.055,0,0,1,1.491-1.491c.852.888,1.7,1.7,2.521,2.521,6.64,6.711,11.47,11.541,11.257,16.832-.107,2.841-1.7,5.575-4.9,8.38A.805.805,0,0,1,317.073,178.125Z" transform="translate(-307.037 -149.837)"/>
        </g>
        <g id="Group_407" data-name="Group 407" transform="translate(10.631 53.314)">
          <path id="Path_2511" data-name="Path 2511" class="cls-4" d="M160.814,178.472a8.074,8.074,0,0,1-5.895-2.45,1.055,1.055,0,0,1,1.491-1.491,5.9,5.9,0,0,0,4.51,1.847c6.5-.107,14.914-8.913,18.536-12.677.6-.639,1.03-1.065,1.385-1.42l-10.369-10.369a1.055,1.055,0,0,1,1.491-1.491l11.221,11.186a1.049,1.049,0,0,1,.249,1.1,1.074,1.074,0,0,1-.6.639c-.284.213-1.065,1.03-1.846,1.847-4.084,4.3-12.642,13.245-20.028,13.352A.142.142,0,0,0,160.814,178.472Zm21.732-15.127Zm0,0Zm.32-.107Z" transform="translate(-154.6 -150.1)"/>
        </g>
        <g id="Group_408" data-name="Group 408" class="cls-5">
          <path id="Path_2512" data-name="Path 2512" class="cls-4" d="M143.531,92.692a18,18,0,0,1-13-5.753c-4.155-4.155-6.072-8.948-5.717-14.239C125.67,60.591,138.169,49.512,142,46.387c-3.835-3.089-16.37-14.026-17.293-26.135-.391-5.362,1.562-10.191,5.788-14.417,4.3-4.261,9.162-6.214,14.523-5.824C157.132.935,168.1,13.47,171.158,17.3c3.16-3.8,14.488-16.3,26.632-17.08A17.594,17.594,0,0,1,211.746,5.8c4.084,4.084,5.966,8.806,5.611,14.026-.817,12.18-13.494,23.4-17.293,26.526,3.764,3.2,16.406,14.737,17.116,26.916A17.2,17.2,0,0,1,211.71,86.9c-4.084,4.084-8.806,5.966-14.062,5.611-12.144-.852-23.366-13.423-26.526-17.293-3.125,3.871-14.2,16.512-26.348,17.4A6.893,6.893,0,0,1,143.531,92.692Zm.178-90.586c-4.261,0-8.167,1.74-11.647,5.22-3.764,3.764-5.5,8.061-5.149,12.748.959,13.032,17.364,25.318,17.506,25.425a1.065,1.065,0,0,1,0,1.7c-.178.142-16.548,12.57-17.435,25.638-.32,4.652,1.385,8.877,5.078,12.57,3.729,3.729,7.99,5.469,12.642,5.113,13.068-.959,25.532-17.435,25.638-17.613a1.059,1.059,0,0,1,.852-.426h0a1.059,1.059,0,0,1,.852.426c.142.178,12.748,16.619,25.816,17.506a15.541,15.541,0,0,0,12.393-4.971,15.085,15.085,0,0,0,4.829-11.967c-.781-13.1-17.187-26.1-17.364-26.242a1.025,1.025,0,0,1-.391-.852,1.059,1.059,0,0,1,.426-.852c.178-.142,16.619-12.748,17.506-25.816.32-4.581-1.385-8.771-5.007-12.393a15.586,15.586,0,0,0-12.322-4.971c-13.068.852-25.816,17.151-25.922,17.329a1.065,1.065,0,0,1-1.7,0c-.107-.178-12.393-16.548-25.425-17.506A6.494,6.494,0,0,0,143.709,2.106Z" transform="translate(-124.662 0.038)"/>
        </g>
      </g>
    </g>
  </g>
</svg>
