<svg xmlns="http://www.w3.org/2000/svg" viewBox="0 0 357 283.366"><defs><style>.a{fill:#e4fcff;}.b,.h{fill:none;}.b,.e,.f,.g,.h{stroke:#000;stroke-linejoin:round;stroke-width:5px;}.b,.e{stroke-linecap:round;}.c{fill:#a1f5ff;}.d,.e,.g{fill:#fff;}.f{fill:#00e5ff;}</style></defs><g transform="translate(-4 -13.101)"><path class="a" d="M333.2,190.2c0-71.438-40.129-135.712-101.368-162.344C170.575,1.222,100.534,17.592,54.889,69.2s-57.721,128.079-30.5,193.174H318.816A186.593,186.593,0,0,0,333.2,190.2Z" transform="translate(10.899 0)"/><line class="b" x2="314.966" transform="translate(25.017 239.99)"/><line class="b" x2="10.287" transform="translate(6.5 239.99)"/><line class="b" x2="10.287" transform="translate(348.213 239.99)"/><ellipse class="c" cx="61.107" cy="7.037" rx="61.107" ry="7.037" transform="translate(119.107 282.394)"/><path class="a" d="M186.748,54.376a16.123,16.123,0,0,0-3.8-10.548,12.109,12.109,0,0,0-9.158-4.348H40.675a12.109,12.109,0,0,0-9.158,4.348,16.123,16.123,0,0,0-3.8,10.548V156.139H186.748Z" transform="translate(75.266 72.674)"/><path class="d" d="M150.222,39.48H42.657a14.9,14.9,0,0,0-14.937,14.9V156.139h5.843Z" transform="translate(63.874 72.674)"/><path class="d" d="M89.041,95.451H44.6L47.357,73.23H86.284Z" transform="translate(115.679 175.833)"/><path class="b" d="M89.041,95.451H44.6L47.357,73.23H86.284Z" transform="translate(115.679 175.833)"/><path class="e" d="M108.527,89.74H44.91a3.457,3.457,0,0,1-3.21-4.814,11.11,11.11,0,0,1,10-6.3h50.038a11.11,11.11,0,0,1,10,6.3,3.457,3.457,0,0,1-3.21,4.814Z" transform="translate(105.781 192.654)"/><path class="e" d="M173.794,90.051a12.109,12.109,0,0,0,9.158-4.348,16.123,16.123,0,0,0,3.8-10.548V67.83H27.72v7.325a16.123,16.123,0,0,0,3.8,10.548,12.109,12.109,0,0,0,9.158,4.348Z" transform="translate(75.266 159.874)"/><path class="b" d="M186.748,54.376a16.123,16.123,0,0,0-3.8-10.548,12.109,12.109,0,0,0-9.158-4.348H40.675a12.109,12.109,0,0,0-9.158,4.348,16.123,16.123,0,0,0-3.8,10.548V156.139H186.748Z" transform="translate(75.266 72.674)"/><path class="b" d="M54.338,72.4a2.469,2.469,0,1,1-2.469-2.469A2.469,2.469,0,0,1,54.338,72.4Z" transform="translate(130.631 166.509)"/><path class="f" d="M146.417,65.7a9.917,9.917,0,0,1-9.835,9.958H46.054a9.958,9.958,0,0,1,0-19.875h90.529A9.917,9.917,0,0,1,146.417,65.7Z" transform="translate(91.176 123.266)"/><path class="g" d="M112.469,55.78H46.054a9.958,9.958,0,0,0,0,19.875h66.415Z" transform="translate(91.537 123.266)"/><path class="h" d="M112.469,55.78H46.054a9.958,9.958,0,0,0,0,19.875h66.415Z" transform="translate(91.537 123.266)"/><path class="d" d="M46.081,48.291a5.02,5.02,0,0,0-4.115,8.024l32.055,41.52a5.02,5.02,0,0,0,7.9,0l32.055-41.52a5.02,5.02,0,0,0-4.115-8.024H97.518V25.247A9.917,9.917,0,0,0,87.6,15.33H68.178a9.917,9.917,0,0,0-9.917,9.917V48.291Z" transform="translate(104.367 0.272)"/><path class="f" d="M46.081,48.291a5.02,5.02,0,0,0-4.115,8.024l32.055,41.52a5.02,5.02,0,0,0,7.9,0l32.055-41.52a5.02,5.02,0,0,0-4.115-8.024H97.518V25.247A9.917,9.917,0,0,0,87.6,15.33H68.178a9.917,9.917,0,0,0-9.917,9.917V48.291Z" transform="translate(104.367 0.272)"/></g></svg>